# xmcd
#
# Track frame offsets: 
#        150
#        13630
#        31569
#        46369
#        62030
#        82579
#        103666
#        119010
#        132603
#        151689
#        171134
#
# Disc length: 2524 seconds
#
# Revision: 0
# Processed by: cddbd v1.5.2PL0 Copyright (c) Steve Scherf et al.
# Submitted via: ExactAudioCopy v1.0b3
#
DISCID=8009da0b
DTITLE=Diplomats of Solid Sound - What Goes Around Comes Around
DYEAR=2010
DGENRE=Funk
TTITLE0=B-O-O-G-A-L-O-O
TTITLE1=Back Off
TTITLE2=Promise of a Brand New Day
TTITLE3=Gimme One More Chance
TTITLE4=No Man
TTITLE5=Fascination
TTITLE6=Bailout!
TTITLE7=Jealous
TTITLE8=What Goes Around Comes Around
TTITLE9=I Can't Wait for Your Love (Pistol Allen)
TTITLE10=Get Out of My Way (So I Can Get Back to My Life)
EXTD=
EXTT0=
EXTT1=
EXTT2=
EXTT3=
EXTT4=
EXTT5=
EXTT6=
EXTT7=
EXTT8=
EXTT9=
EXTT10=
PLAYORDER=
